<?xml version="1.0" encoding="utf-8"?>
<!-- Generator: Adobe Illustrator 21.0.0, SVG Export Plug-In . SVG Version: 6.00 Build 0)  -->
<svg version="1.1" xmlns="http://www.w3.org/2000/svg" xmlns:xlink="http://www.w3.org/1999/xlink" x="0px" y="0px"
	 viewBox="0 0 1000 1000" style="enable-background:new 0 0 1000 1000;" xml:space="preserve">
<style type="text/css">
	.st0{fill:#81C671;}
	.st1{fill:#6272B6;}
	.st2{fill:#BCBEC0;}
</style>
<g id="Layer_1">
	<rect class="st0" width="1000" height="1000"/>
	<circle class="st1" cx="500" cy="500" r="364.1"/>
</g>
<g id="Layer_2">
	<g>
		<path class="st2" d="M513,606.1c0-3.5-0.2-6.5-0.2-6.5c-0.1-2.2,1.2-5,3.1-6.2l38.4-26.2c1.8-1.2,2.8-4,2.2-6.1l-5.5-17
			c-0.8-2.1-3.2-3.7-5.4-3.7l-46.4,1.2c-2.2,0.1-5-1.4-6.2-3.2l-7.9-10.9c-1.4-1.7-1.9-4.8-1.1-6.9l15.6-43.7
			c0.7-2.1-0.1-4.9-1.8-6.2l-14.4-10.5c-1.8-1.2-4.7-1.1-6.5,0.2l-36.8,28.2c-1.7,1.3-4.9,1.8-6.9,1l-12.8-4.2
			c-2.1-0.6-4.4-2.8-5-4.9l-13-44.5c-0.6-2.1-2.9-3.9-5.1-4.1c0,0-4.8-0.3-9.3-0.3c-4.2,0-8.6,0.2-8.6,0.2c-2.2,0.1-4.5,1.9-5.1,4.1
			l-13.2,44.4c-0.6,2.1-2.9,4.3-5,4.9l-12.8,4.1c-2.1,0.8-5.2,0.3-6.9-1.1L299.7,460c-1.7-1.3-4.7-1.4-6.5-0.2l-14.4,10.5
			c-1.7,1.4-2.5,4.2-1.8,6.2l15.5,43.7c0.7,2.1,0.2,5.2-1.2,6.9l-7.9,10.9c-1.2,1.8-4,3.3-6.2,3.2l-46.4-1.4
			c-2.2-0.1-4.6,1.6-5.4,3.6l-5.5,16.9c-0.6,2.1,0.4,4.9,2.2,6.1l38.2,26.3c1.8,1.2,3.2,4.1,3,6.3c0,0-0.2,3.3-0.2,7
			c0,3.5,0.2,6.5,0.2,6.5c0.1,2.2-1.2,5-3.1,6.2l-38.4,26.2c-1.8,1.2-2.8,4-2.2,6.1l5.5,17c0.8,2.1,3.2,3.7,5.4,3.7l46.4-1.2
			c2.2-0.1,5,1.4,6.2,3.2l7.9,10.9c1.4,1.7,1.9,4.8,1.1,6.9l-15.6,43.7c-0.7,2.1,0.1,4.9,1.8,6.2l14.4,10.5c1.8,1.2,4.7,1.1,6.5-0.2
			l36.8-28.2c1.7-1.3,4.9-1.8,6.9-1l12.8,4.2c2.1,0.6,4.4,2.8,5,4.9l13,44.5c0.6,2.1,2.9,3.9,5.1,4.1c0,0,4.8,0.3,9.3,0.3
			c4.2,0,8.6-0.2,8.6-0.2c2.2-0.1,4.5-1.9,5.1-4.1l13.2-44.4c0.6-2.1,2.9-4.3,5-4.9l12.8-4.1c2.1-0.8,5.2-0.3,6.9,1.1l36.7,28.4
			c1.7,1.3,4.7,1.4,6.5,0.2l14.4-10.5c1.7-1.4,2.5-4.2,1.8-6.2l-15.5-43.7c-0.7-2.1-0.2-5.2,1.2-6.9l7.9-10.9c1.2-1.8,4-3.3,6.2-3.2
			l46.4,1.4c2.2,0.1,4.6-1.6,5.4-3.6l5.5-16.9c0.6-2.1-0.4-4.9-2.2-6.1l-38.2-26.3c-1.8-1.2-3.2-4.1-3-6.3
			C512.7,613.1,513,609.8,513,606.1z M388,678.2c-39.8,0-72.1-32.3-72.1-72.1c0-39.8,32.3-72.1,72.1-72.1s72.1,32.3,72.1,72.1
			C460.1,645.9,427.8,678.2,388,678.2z"/>
	</g>
	<g>
		<path class="st2" d="M737.3,388.4c0-3.4-0.2-6.1-0.2-6.1c-0.1-2.2,1.2-5,3.1-6.2l38-25.3c1.8-1.2,2.8-3.9,2.2-6.1l-5.4-16.2
			c-0.8-2.1-3.2-3.7-5.4-3.6l-46.1,1.1c-2.2,0.1-5-1.4-6.2-3.2l-7.7-10.4c-1.4-1.7-1.9-4.8-1.1-6.9l15.5-42.1c0.8-2.1,0-4.9-1.8-6.2
			l-14.2-10.1c-1.8-1.2-4.8-1.1-6.5,0.2l-36.5,27.2c-1.8,1.3-4.9,1.8-7,1l-12.7-4c-2.1-0.6-4.4-2.8-5-4.9l-12.9-42.9
			c-0.6-2.1-2.9-3.9-5.1-4.1c0,0-4.8-0.3-9.2-0.3c-4.2,0-8.5,0.2-8.5,0.2c-2.2,0.1-4.5,1.9-5.2,4l-13,42.8c-0.6,2.1-2.9,4.3-5,4.9
			l-12.7,4c-2.1,0.7-5.2,0.3-7-1L525.4,247c-1.8-1.3-4.7-1.4-6.5-0.2l-14.3,10.1c-1.7,1.3-2.6,4.1-1.8,6.2l15.3,42.1
			c0.8,2.1,0.2,5.2-1.2,6.9l-7.8,10.4c-1.2,1.8-4.1,3.2-6.3,3.2l-46.1-1.3c-2.2-0.1-4.6,1.6-5.4,3.6l-5.4,16.2
			c-0.6,2.1,0.4,4.8,2.2,6.1l37.9,25.4c1.8,1.2,3.2,4,3,6.2c0,0-0.2,3.1-0.2,6.6c0,3.4,0.2,6.1,0.2,6.1c0.1,2.2-1.2,5-3.1,6.2
			l-38,25.3c-1.8,1.2-2.8,3.9-2.2,6.1l5.4,16.2c0.8,2.1,3.2,3.7,5.4,3.6l46.1-1.1c2.2-0.1,5,1.4,6.2,3.2l7.7,10.4
			c1.4,1.7,1.9,4.8,1.1,6.9l-15.5,42.1c-0.8,2.1,0,4.9,1.8,6.2l14.2,10.1c1.8,1.2,4.8,1.1,6.5-0.2l36.5-27.2c1.8-1.3,4.9-1.8,7-1
			l12.7,4c2.1,0.6,4.4,2.8,5,4.9l12.9,42.9c0.6,2.1,2.9,3.9,5.1,4.1c0,0,4.8,0.3,9.2,0.3c4.2,0,8.5-0.2,8.5-0.2
			c2.2-0.1,4.5-1.9,5.2-4l13-42.8c0.6-2.1,2.9-4.3,5-4.9l12.7-4c2.1-0.7,5.2-0.3,7,1l36.4,27.4c1.8,1.3,4.7,1.4,6.5,0.2l14.3-10.1
			c1.7-1.3,2.6-4.1,1.8-6.2l-15.3-42.1c-0.8-2.1-0.2-5.2,1.2-6.9l7.8-10.4c1.2-1.8,4.1-3.2,6.3-3.2l46.1,1.3
			c2.2,0.1,4.6-1.6,5.4-3.6l5.4-16.2c0.6-2.1-0.4-4.8-2.2-6.1l-37.9-25.4c-1.8-1.2-3.2-4-3-6.2C737.1,395,737.3,392,737.3,388.4z
			 M613.1,458.2c-39.6,0-71.6-31.3-71.6-69.8s32.1-69.8,71.6-69.8s71.6,31.3,71.6,69.8S652.6,458.2,613.1,458.2z"/>
	</g>
</g>
</svg>
